<svg width="32" height="41" fill="none" xmlns="http://www.w3.org/2000/svg"><path d="M16 41C7.163 41 0 31.822 0 20.5S7.163 0 16 0s16 9.178 16 20.5S24.837 41 16 41z" fill="#111"/><path d="M9.215 7l.498 1.224h1.61l-1.303.757.498 1.224-1.303-.757-1.302.757.498-1.224-1.303-.757h1.61L9.215 7zM29.215 19l.498 1.224h1.61l-1.303.757.498 1.224-1.303-.757-1.302.757.498-1.224-1.303-.757h1.61L29.215 19zM16.215 2l.498 1.224h1.61l-1.303.757.498 1.224-1.303-.757-1.302.757.498-1.224-1.303-.757h1.61L16.215 2z" fill="#fff" fill-opacity=".85"/><path d="M12.173 22.38c0 5.928-5.24 11.233-1.972 11.233 3.267 0 13.147-5.305 13.147-11.233 0-5.928-1.334-8.539-4.601-8.539-3.268 0-6.574 2.611-6.574 8.54z" fill="#E8E8E8"/><path d="M7.842 20.559c-2.108 5.35-8.096 8.675-5.293 9.78 2.803 1.104 13.335-.43 15.443-5.78 2.109-5.351 5.323-9.012 2.52-10.116-2.802-1.105-10.561.765-12.67 6.116z" fill="#fff" fill-opacity=".95"/><path d="M21.613 16.6c-1.045 2.651-2.137 4.17-3.182 6.822-1.045 2.651-1.387 3.018-4.224 4.963-2.433 1.668-6.2 2.094-6.2 2.094" stroke="#686868" stroke-width=".3"/><path d="M13.899 33.79l3.027.891M13.9 32.01v1.78-1.78zm0 1.78l-2.018.891 2.018-.89zM14.908 33.79l3.853.891m-3.853-2.671v1.78-1.78zm0 1.78l-2.569.891 2.569-.89z" stroke="#DDD" stroke-width=".5"/><path d="M27.947 13.698c1.11-2.189-1.217-5.263-4.473-6.572-3.255-1.31-7.384-.834-8.495 1.355-.575 1.133-.86 2.731-.738 3.943.053.527-.45 1.905-.241 2.076.209.17 1.708-.516 2.259-.659l3.444.718 3.255 1.977c.361.51.76 1.937 1.042 1.964.282.027 1.167-1.175 1.57-1.518.93-.79 1.802-2.15 2.377-3.284z" fill="#E8E8E8"/><path d="M23.235 7.597l-1.604 1.622 1.297.522.307-2.144z" fill="#fff"/><path d="M25.135 9.495c1.313.528 1.789 2.116 1.063 3.546-.726 1.43-2.378 2.162-3.692 1.634-1.313-.528-1.789-2.116-1.063-3.547.726-1.43 2.379-2.161 3.692-1.633z" fill="#fff"/><path d="M24.896 9.966c1.074.432 1.464 1.731.87 2.902-.594 1.17-1.946 1.768-3.02 1.336-1.075-.432-1.464-1.731-.87-2.902.593-1.17 1.946-1.768 3.02-1.336z" fill="#111"/><path d="M23.117 12.73c.396-.78 1.104-1.257 1.581-1.065.478.192.544.98.148 1.76s-1.104 1.257-1.581 1.065c-.478-.192-.544-.98-.148-1.76zM20.38 7.582c1.313.528 1.789 2.116 1.063 3.547-.726 1.43-2.379 2.161-3.692 1.633-1.313-.528-1.789-2.116-1.063-3.546.726-1.43 2.379-2.162 3.692-1.634z" fill="#fff"/><path d="M20.14 8.053c1.075.432 1.465 1.731.87 2.902-.593 1.17-1.945 1.768-3.02 1.336-1.074-.432-1.463-1.731-.87-2.902.594-1.17 1.947-1.768 3.02-1.336z" fill="#111"/><path d="M18.52 10.524c.396-.78 1.104-1.257 1.581-1.065.478.192.544.98.148 1.76s-1.104 1.257-1.581 1.065c-.478-.192-.544-.98-.148-1.76z" fill="#fff"/></svg>