<svg width="33" height="41" fill="none" xmlns="http://www.w3.org/2000/svg"><path d="M16 41C7.163 41 0 31.822 0 20.5S7.163 0 16 0s16 9.178 16 20.5S24.837 41 16 41z" fill="#111"/><path d="M30.215 19l.498 1.224h1.61l-1.303.757.498 1.224-1.303-.757-1.302.757.498-1.224-1.303-.757h1.61L30.215 19z" fill="#fff" fill-opacity=".85"/><path d="M22.767 22.184c3.946-3.455 10.19-2.58 8.38-5.386-1.81-2.805-10.988-8.229-14.935-4.773-3.946 3.455-8.083 4.674-6.273 7.48 1.81 2.805 8.881 6.134 12.828 2.68z" fill="#fff" fill-opacity=".95"/><path d="M19.403 23.504s1.376-1.87 1.376-4.008c0-2.137-.017-3.594-.459-5.076-.342-1.15-1.146-2.405-1.146-2.405" stroke="#686868" stroke-width=".3"/><path d="M9.604 19.485c0 5.928-5.24 11.233-1.972 11.233 3.267 0 13.147-5.305 13.147-11.233 0-5.927-1.334-8.538-4.602-8.538-3.267 0-6.573 2.61-6.573 8.538z" fill="#E8E8E8"/><path d="M4.832 21.282c0 5.75-4.351 11.039-1.339 11.039 3.013 0 12.249-5.288 12.249-11.04 0-5.75 1.648-10.334-1.364-10.334-3.013 0-9.546 4.584-9.546 10.335z" fill="#fff" fill-opacity=".95"/><path d="M16.192 12.55c0 2.85-.459 4.663-.459 7.513 0 2.85-.183 3.316-2.11 6.166-1.652 2.444-5 4.222-5 4.222" stroke="#686868" stroke-width=".3"/><path d="M11.33 30.896l3.027.89m-3.027-2.671v1.781-1.781zm0 1.781l-2.019.89 2.019-.89zM12.339 30.896l3.853.89m-3.853-2.671v1.781-1.781zm0 1.781l-2.569.89 2.569-.89z" stroke="#DDD" stroke-width=".5"/><path d="M9.062 10.95c.637 2.372 4.423 3.103 7.72 1.902 3.297-1.201 6.05-4.315 5.414-6.686-.33-1.227-1.186-2.606-2.086-3.426-.392-.356-.424-2.055-.693-2.042-.269.012-1.441 1.862-1.755 2.336L14.62 4.802l-3.744.704c-.61-.138-2.575-.844-2.803-.676-.227.169.633 1.565.562 2.09-.164 1.208.097 2.804.426 4.03z" fill="#E8E8E8"/><path d="M16.645 12.342l.109-2.28-1.314.479 1.205 1.8z" fill="#fff"/><path d="M13.963 12.199c-1.33.485-2.745-.379-3.16-1.928-.417-1.549.324-3.198 1.654-3.682 1.33-.484 2.745.379 3.161 1.928.416 1.549-.325 3.197-1.655 3.682z" fill="#fff"/><path d="M13.826 11.689c-1.088.396-2.246-.31-2.586-1.577-.34-1.268.266-2.617 1.354-3.013 1.088-.396 2.246.31 2.586 1.577.34 1.268-.266 2.617-1.354 3.013z" fill="#111"/><path d="M14.373 9.25c.227.845.019 1.673-.465 1.85-.483.175-1.06-.367-1.286-1.212-.227-.845-.019-1.673.465-1.849.483-.176 1.06.366 1.286 1.211zM18.779 10.444c-1.33.485-2.745-.378-3.161-1.927-.416-1.55.325-3.198 1.655-3.682 1.33-.485 2.745.378 3.16 1.927.416 1.55-.324 3.198-1.654 3.683z" fill="#fff"/><path d="M18.642 9.935c-1.088.396-2.246-.31-2.586-1.578-.34-1.267.266-2.616 1.354-3.012 1.088-.397 2.246.31 2.586 1.577.34 1.267-.266 2.616-1.354 3.013z" fill="#111"/><path d="M19.189 7.496c.227.845.018 1.673-.465 1.849-.484.176-1.06-.366-1.286-1.211-.227-.845-.02-1.673.464-1.85.484-.175 1.06.367 1.287 1.212z" fill="#fff"/></svg>